<mxfile host="65bd71144e">
    <diagram id="r7gYFkh4XAJhnjSJ03Ph" name="第 1 页">
        <mxGraphModel dx="917" dy="766" grid="0" gridSize="10" guides="1" tooltips="1" connect="1" arrows="1" fold="1" page="0" pageScale="1" pageWidth="827" pageHeight="1169" math="0" shadow="0">
            <root>
                <mxCell id="0"/>
                <mxCell id="1" parent="0"/>
                <mxCell id="2" value="&lt;font face=&quot;Times New Roman&quot;&gt;first chunk&lt;br&gt;0x405000&lt;br&gt;&lt;/font&gt;" style="rounded=0;whiteSpace=wrap;html=1;" vertex="1" parent="1">
                    <mxGeometry x="160" y="200" width="120" height="40" as="geometry"/>
                </mxCell>
                <mxCell id="3" value="&lt;font face=&quot;Times New Roman&quot;&gt;third chunk&lt;br&gt;0x405120&lt;br&gt;&lt;/font&gt;" style="rounded=0;whiteSpace=wrap;html=1;" vertex="1" parent="1">
                    <mxGeometry x="360" y="200" width="120" height="40" as="geometry"/>
                </mxCell>
                <mxCell id="4" value="&lt;font face=&quot;Times New Roman&quot;&gt;fifth chunk&lt;br&gt;0x405240&lt;br&gt;&lt;/font&gt;" style="rounded=0;whiteSpace=wrap;html=1;" vertex="1" parent="1">
                    <mxGeometry x="560" y="200" width="120" height="40" as="geometry"/>
                </mxCell>
                <mxCell id="6" value="fd&lt;br&gt;0x7ffff7dd1b78 (main_arena+88)" style="rounded=1;whiteSpace=wrap;html=1;fontFamily=Times New Roman;" vertex="1" parent="1">
                    <mxGeometry x="160" y="280" width="120" height="40" as="geometry"/>
                </mxCell>
                <mxCell id="7" value="bk&lt;br&gt;0x405120" style="rounded=1;whiteSpace=wrap;html=1;fontFamily=Times New Roman;" vertex="1" parent="1">
                    <mxGeometry x="160" y="360" width="120" height="40" as="geometry"/>
                </mxCell>
                <mxCell id="9" value="fd&lt;br&gt;0x405000" style="rounded=1;whiteSpace=wrap;html=1;fontFamily=Times New Roman;" vertex="1" parent="1">
                    <mxGeometry x="360" y="280" width="120" height="40" as="geometry"/>
                </mxCell>
                <mxCell id="10" value="bk&lt;br&gt;0x405240" style="rounded=1;whiteSpace=wrap;html=1;fontFamily=Times New Roman;" vertex="1" parent="1">
                    <mxGeometry x="360" y="360" width="120" height="40" as="geometry"/>
                </mxCell>
                <mxCell id="12" value="fd&lt;br&gt;0x405120" style="rounded=1;whiteSpace=wrap;html=1;fontFamily=Times New Roman;" vertex="1" parent="1">
                    <mxGeometry x="560" y="280" width="120" height="40" as="geometry"/>
                </mxCell>
                <mxCell id="13" value="bk&lt;br&gt;0x7ffff7dd1b78 (main_arena+88)" style="rounded=1;whiteSpace=wrap;html=1;fontFamily=Times New Roman;" vertex="1" parent="1">
                    <mxGeometry x="560" y="360" width="120" height="40" as="geometry"/>
                </mxCell>
                <mxCell id="21" value="" style="edgeStyle=elbowEdgeStyle;elbow=horizontal;endArrow=classic;html=1;curved=0;rounded=0;endSize=8;startSize=8;fontFamily=Times New Roman;fillColor=#fad9d5;strokeColor=#ae4132;" edge="1" parent="1">
                    <mxGeometry width="50" height="50" relative="1" as="geometry">
                        <mxPoint x="360" y="300" as="sourcePoint"/>
                        <mxPoint x="280" y="220" as="targetPoint"/>
                        <Array as="points">
                            <mxPoint x="300" y="250"/>
                        </Array>
                    </mxGeometry>
                </mxCell>
                <mxCell id="22" value="" style="edgeStyle=elbowEdgeStyle;elbow=horizontal;endArrow=classic;html=1;curved=0;rounded=0;endSize=8;startSize=8;fontFamily=Times New Roman;fillColor=#fad9d5;strokeColor=#ae4132;" edge="1" parent="1">
                    <mxGeometry width="50" height="50" relative="1" as="geometry">
                        <mxPoint x="560" y="300" as="sourcePoint"/>
                        <mxPoint x="480" y="220" as="targetPoint"/>
                        <Array as="points">
                            <mxPoint x="500" y="260"/>
                        </Array>
                    </mxGeometry>
                </mxCell>
                <mxCell id="23" value="" style="edgeStyle=elbowEdgeStyle;elbow=horizontal;endArrow=classic;html=1;curved=0;rounded=0;endSize=8;startSize=8;fontFamily=Times New Roman;entryX=0;entryY=0.5;entryDx=0;entryDy=0;fillColor=#1ba1e2;strokeColor=#006EAF;" edge="1" parent="1" target="3">
                    <mxGeometry width="50" height="50" relative="1" as="geometry">
                        <mxPoint x="280" y="380" as="sourcePoint"/>
                        <mxPoint x="330" y="330" as="targetPoint"/>
                        <Array as="points">
                            <mxPoint x="340" y="340"/>
                        </Array>
                    </mxGeometry>
                </mxCell>
                <mxCell id="24" value="" style="edgeStyle=elbowEdgeStyle;elbow=horizontal;endArrow=classic;html=1;curved=0;rounded=0;endSize=8;startSize=8;fontFamily=Times New Roman;entryX=0;entryY=0.5;entryDx=0;entryDy=0;fillColor=#1ba1e2;strokeColor=#006EAF;" edge="1" parent="1">
                    <mxGeometry width="50" height="50" relative="1" as="geometry">
                        <mxPoint x="480" y="380" as="sourcePoint"/>
                        <mxPoint x="560" y="220" as="targetPoint"/>
                        <Array as="points">
                            <mxPoint x="540" y="340"/>
                        </Array>
                    </mxGeometry>
                </mxCell>
            </root>
        </mxGraphModel>
    </diagram>
</mxfile>